# xmcd CD database file
#
# Track frame offsets:
#	150
#	25592
#	46637
#	67515
#	89952
#	118260
#	138395
#	159882
#	182125
#	189850
#	200302
#
# Disc length: 2963 seconds
#
# Revision: 0
# Processed by: cddbd v1.5.2PL0 Copyright (c) Steve Scherf et al.
# Submitted via: CDex 1.51
#
DISCID=860b910b
DTITLE=吉田潔 - 祭 Matsuri
DYEAR=2006
DGENRE=New Age
TTITLE0=龍奔流
TTITLE1=虎異形
TTITLE2=炎御輿
TTITLE3=鯨伝説
TTITLE4=巨鯨大祭
TTITLE5=侍 Rider
TTITLE6=蝶華
TTITLE7=熱風
TTITLE8=祠（ほこら）～Interlude～
TTITLE9=龍虎合体舞
TTITLE10=いのちの祭
EXTD=YEAR: 2006
EXTT0=
EXTT1=
EXTT2=
EXTT3=
EXTT4=
EXTT5=
EXTT6=
EXTT7=
EXTT8=
EXTT9=
EXTT10=
PLAYORDER=
